<svg width="98" height="18" viewBox="0 0 98 18" xmlns="http://www.w3.org/2000/svg" xmlns:xlink="http://www.w3.org/1999/xlink">
    <defs>
        <path id="8do65d912a" d="M0 0h20.039v17.5H0z"/>
    </defs>
    <g fill="none" fill-rule="evenodd">
        <path d="M46.07 12.686a3.938 3.938 0 1 1 0-7.875 3.938 3.938 0 0 1 0 7.875m0-11.403a7.462 7.462 0 0 0-7.463 7.465 7.46 7.46 0 0 0 7.463 7.464 7.464 7.464 0 1 0 0-14.929M74.325 12.686a3.938 3.938 0 1 1 0-7.875 3.936 3.936 0 0 1 3.935 3.937 3.936 3.936 0 0 1-3.935 3.938m0-11.403a7.465 7.465 0 1 0-.002 14.93 7.465 7.465 0 0 0 .002-14.93M60.194 1.747h-3.638v14.001h8.45v-3.246h-4.812zM33.338 1.747l-4.41 5.811V1.75h-3.64v13.998h3.64v-5.81l4.41 5.81h4.543l-5.568-7 5.568-7zM94.364 1.747v8.008h-.038l-5.831-8.008h-3.678v14.001h3.64V7.18h.039l6.24 8.57H98V1.746z" fill="#006CB5"/>
        <g>
            <mask id="xiwg7b3bbb" fill="#fff">
                <use xlink:href="#8do65d912a"/>
            </mask>
            <path d="M3.634 1.404C3.237.703 3.799 0 4.45 0h11.083c.916 0 1.16.868.791 1.458L14.329 4.91c-.322.64-1.122.617-1.475.025l-1.929-3.36c-.533-.901-1.28-.921-1.829 0L7.203 4.845c-.266.495.149 1.227.816 1.227H19.1c.767 0 1.14.853.829 1.396l-5.492 9.51a1.023 1.023 0 0 1-1.775.01l-1.945-3.316c-.398-.705.143-1.524.792-1.524h4.131c.618 0 .983-.645.629-1.268l-1.814-3.191c-.475-.81-1.235-.854-1.735-.036 0 0-5.027 8.659-5.416 9.326-.388.668-1.176.722-1.602-.004L.147 7.502c-.437-.78.175-1.43.856-1.43h3.839c.95 0 1.212.828.836 1.436l-1.984 3.446c-.292.525.172 1.202.816 1.194h4.007c.613.008 1.014-.554.661-1.182L3.634 1.404z" fill="#CF2D26" mask="url(#xiwg7b3bbb)"/>
        </g>
    </g>
</svg>
